<?xml version="1.0" encoding="utf-8"?>
<!-- Generator: Adobe Illustrator 24.0.1, SVG Export Plug-In . SVG Version: 6.00 Build 0)  -->
<svg version="1.1" id="Layer_1" xmlns="http://www.w3.org/2000/svg" xmlns:xlink="http://www.w3.org/1999/xlink" x="0px" y="0px"
	 viewBox="0 0 1000 800" style="enable-background:new 0 0 1000 800;" xml:space="preserve">
<style type="text/css">
	.st0{fill:#bbb;}
	.st1{fill:#444;}
</style>
<g>
	<path class="st1" d="M908.8,550c0,13.5,0,27,0,40.5c-0.4,1.1-1.1,2.1-1.2,3.3c-7.1,53.3-31.1,97.1-72.8,131.2c-65,53.1-145.9,56-212.7,7.1
		c-11-8-20.8-17.7-30.6-26c-13.9,10.6-27.3,22.1-41.9,31.8c-44.9,29.6-94.1,41.9-147.3,31.3c-64.5-12.8-110.5-51.3-141.6-108.1
		c-22.5-41-29.2-84.8-19-130.7c9-40.4,31.8-72.2,62.3-99.3c10.5-9.3,22.1-16.3,35.7-19.6c28.3-6.8,56.3-5.8,84,3.6
		c13,4.5,24.5,11.5,34.3,21.9c3.3-32.4,6.2-63.8,9.6-95.1c5.1-46.3,16.2-90.9,37.3-132.6c4.4-8.7,8.9-17.3,12.1-23.6
		c-14.1,10.1-29.2,23-46,32.7C422,246.5,368.4,262,313.6,273.7c-57.6,12.3-115.9,19-174.8,21c-14.8,0.5-29.6,0.1-45.1,0.1
		c1.3-2.2,2.1-3.9,3.1-5.5c15.1-23.2,30-46.5,45.5-69.5c26.4-39.2,54-77.6,88-110.8c61.5-60.3,134.5-81.4,218.9-63
		C492,55.4,532.1,72.2,571,91.9c4.1,2.1,6.3,1.8,9.9-1.2c16.6-13.9,32.8-28.6,50.7-40.6c15.6-10.5,33.3-17.9,50-26.7
		c1.4,0,2.9,0,4.3,0c2.8,7.3,5.6,14.7,9.1,23.8c-10.1,7.2-20.6,14.7-31,22.3c-2.2,1.6-5.3,3.4-6,5.7c-3.2,10-7,20.1-8.2,30.5
		c-3.3,28.2,5.2,54.3,17.5,79.2c16.4,33.3,33.1,66.4,49.2,99.7c24.4,50.5,39.2,103,31.3,159.8c-0.1,0.8,0.3,1.7,0.2,1.4
		c16.4-1,32.2-2.9,48-2.8c52.6,0.5,92.5,31.4,106.9,81.9C905.3,533.2,906.9,541.7,908.8,550z M111.3,285.7c3.7,0,6,0.1,8.4,0
		c26.9-1.5,53.9-2.6,80.8-4.8c47.8-4,95.4-9.8,141.5-23.3c57.9-17,113.1-39.6,161-77.5c22.1-17.6,42-37.4,60.8-60.9
		c-7.3-2.8-13.4-6.1-20-7.5c-28.8-6.3-57.6-1.8-86.3,1.2c-2.1,0.2-4.6,3-5.6,5.2c-4.7,10.5-8.6,21.4-13.4,31.9
		c-7.2,15.6-15.6,30.5-27.2,43.5c9.1-25.8,28.4-47.4,31.4-76.5c-2.3,0-3.9-0.1-5.5,0c-18.5,1.6-35.4,8.5-52.2,15.8
		c-6,2.6-9.2,6.4-10.4,13.1c-2.4,13.7-5.1,27.5-8.8,40.9c-3.1,11-7.9,21.5-11.9,32.3c-0.7-0.2-1.3-0.5-2-0.7
		c6-24,15.2-47.4,15.2-72.8c-1.8-0.1-2.8-0.4-3.7-0.3c-18.6,1.9-35,10.2-51.2,18.6c-1.3,0.7-2.5,2.9-2.7,4.5
		c-3.9,28.1-17.6,51.7-34.6,73.6c-0.7,1-1.5,1.9-2.3,2.8c-0.8,0.9-1.7,1.6-2.6,2.4c15-24.7,29.1-49.2,30.1-79.6
		c-18.7,9.4-36.6,19.5-54.4,30c-2.1,1.2-3,4.7-4.1,7.2c-4.9,11.7-9.1,23.8-14.9,35.1c-2.8,5.5-8.3,9.6-12.6,14.3
		c-0.5-0.5-0.9-0.9-1.4-1.4c13.6-21.3,20.2-37,19.4-48.8c-26.5,19.3-52.1,37.8-77.7,56.4c20.1-26.5,46.5-45.4,75.8-63
		c-18.6-3.3-34.3,3.2-52.5,5.1c11.1-6.8,21.4-9.9,31.9-9.6c21.4,0.6,40.5-5.3,58.7-16.2c10-6,20.8-10.7,31.3-16
		c-20.6-6-39.8,2.9-59.7,3.3c17.6-5.4,34.9-14.5,53.7-11.8c13.3,1.9,24.5-1.7,36-6.3c6-2.4,12.2-4.5,18.2-6.9
		c4.8-1.9,9.5-3.9,15.7-6.5c-21.8-7.7-42.1-4.1-62.4-1.7c0.5-0.9,1.1-1.3,1.7-1.5c18-5.6,36.5-6.8,55.1-5.7
		c10.4,0.7,19.8-1.6,29.5-4.8c16.4-5.5,33-10.5,50-15.9c-15.1-8.8-32.4-7.3-48-12.6c16.3,0.9,33,0.6,48.4,5
		c10.1,2.9,19.2,2.5,29,2.2c26.7-0.9,53.5-1,80.2-1.3c2.6,0,5.3,0,7.9,0C522.2,78.2,489,62.8,453.4,54
		c-33.1-8.2-66.5-10.4-100.3-3.9c-45.3,8.8-82.6,32.3-115.4,63.6c-40.2,38.5-71.4,84-101.1,130.6
		C128.2,257.6,120.1,271.2,111.3,285.7z M726.7,441.2c3.8-16.8,2.5-44.6-2.3-68.4c-7.6-37.6-22.7-72.3-39.3-106.6
		c-17.7-36.5-35-73.3-51.4-110.5c-6.9-15.6-10.7-32.5-7-50c1.1-5.1,2.7-10.1,4.3-15.5c-1.1,0.5-1.7,0.8-2.3,1.1
		c-1.8,1.3-3.5,2.6-5.2,3.9c-62.1,47.2-98.8,110.7-118.3,185c-10.9,41.8-14.4,84.9-17.5,127.9c-0.7,10.2-1.2,20.5-1.7,31.3
		c18.6-5.2,36.3-4.9,54-1.7c18.1,3.3,34,11.4,47.9,23.9c15.8-23.2,36.6-36.6,64.1-39.4C679.1,419.3,703.2,427.3,726.7,441.2z
		 M598,691.4c0.3,0.2,0.5,0.3,0.8,0.5c1.3-1.9,2.9-3.6,3.8-5.7c6.8-15.8,14.6-31.4,20-47.7c10.9-33.1,17.6-67,12.8-102.2
		c-2.2-16.5-1.6-17.8,13.9-25c4.1-1.9,8.5-3.3,12.9-4.6c8.3-2.4,16.6-4.7,25-6.9c7.6-1.9,10.9-7.2,12-14.5
		c3.6-24.3-17.2-45.9-43.1-44.3c-25.9,1.6-41.1,18.7-55,37.5c0.6,1.1,0.8,1.8,1.2,2.3c19.5,21.2,26.4,46.9,27.3,74.9
		c1,31.9-5.1,62.7-15.3,92.8C609.4,663,603.5,677.1,598,691.4z M267.9,541.8c0,1.7-0.1,3.4,0,5.1c0.2,5.7-0.8,12.9,5.4,15.3
		c6.5,2.5,11-3.4,14.8-7.9c7.9-9.4,15.6-19,23.3-28.6c19.1-23.6,37.1-48.1,62.7-65.5c4.9-3.3,4.9-8.1-0.9-11.7
		c-7.7-4.7-16.1-8.6-24.7-11.1c-9.1-2.6-19.1-2.5-27,3.7C288.9,466.7,267.7,498.6,267.9,541.8z"/>
	<path class="st0" d="M111.3,285.7c8.8-14.5,16.9-28.1,25.4-41.4c29.7-46.6,60.9-92.1,101.1-130.6c32.8-31.4,70.1-54.8,115.4-63.6
		c33.7-6.6,67.2-4.4,100.3,3.9c35.7,8.9,68.8,24.2,101.5,42c-2.6,0-5.3,0-7.9,0c-26.7,0.4-53.5,0.4-80.2,1.3
		c-9.9,0.3-18.9,0.7-29-2.2c-15.4-4.4-32.1-4.1-48.4-5c15.6,5.2,32.9,3.7,48,12.6c-17.1,5.4-33.6,10.5-50,15.9
		c-9.6,3.2-19,5.4-29.5,4.8c-18.5-1.2-37.1,0-55.1,5.7c-0.6,0.2-1.2,0.7-1.7,1.5c20.3-2.4,40.6-6,62.4,1.7
		c-6.2,2.6-10.9,4.7-15.7,6.5c-6,2.4-12.2,4.5-18.2,6.9c-11.6,4.6-22.7,8.2-36,6.3c-18.8-2.7-36.1,6.4-53.7,11.8
		c19.9-0.4,39.1-9.3,59.7-3.3c-10.5,5.3-21.3,10-31.3,16c-18.2,10.9-37.3,16.7-58.7,16.2c-10.5-0.3-20.8,2.8-31.9,9.6
		c18.3-1.9,34-8.5,52.5-5.1c-29.3,17.6-55.8,36.5-75.8,63c25.6-18.6,51.2-37.2,77.7-56.4c0.8,11.9-5.7,27.6-19.4,48.8
		c0.5,0.5,0.9,0.9,1.4,1.4c4.3-4.7,9.8-8.8,12.6-14.3c5.7-11.3,9.9-23.4,14.9-35.1c1.1-2.6,2-6,4.1-7.2c17.7-10.5,35.7-20.6,54.4-30
		c-1,30.4-15.2,55-30.1,79.6c0.9-0.8,1.8-1.6,2.6-2.4c0.8-0.9,1.5-1.8,2.3-2.8c17-22,30.6-45.5,34.6-73.6c0.2-1.6,1.4-3.8,2.7-4.5
		c16.2-8.5,32.6-16.7,51.2-18.6c0.9-0.1,1.9,0.1,3.7,0.3c-0.1,25.4-9.2,48.8-15.2,72.8c0.7,0.2,1.3,0.5,2,0.7
		c4-10.7,8.8-21.3,11.9-32.3c3.8-13.4,6.5-27.1,8.8-40.9c1.2-6.7,4.4-10.5,10.4-13.1c16.8-7.4,33.7-14.2,52.2-15.8
		c1.6-0.1,3.2,0,5.5,0c-3,29.1-22.3,50.7-31.4,76.5c11.6-13,20-27.9,27.2-43.5c4.8-10.5,8.7-21.4,13.4-31.9c1-2.2,3.5-5,5.6-5.2
		c28.7-3,57.5-7.4,86.3-1.2c6.6,1.4,12.7,4.7,20,7.5C545,142.6,525.1,162.4,503,180c-47.8,37.9-103.1,60.5-161,77.5
		c-46.2,13.6-93.8,19.4-141.5,23.3c-26.9,2.2-53.9,3.3-80.8,4.8C117.3,285.8,115,285.7,111.3,285.7z"/>
	<path class="st0" d="M598,691.4c5.5-14.3,11.4-28.4,16.3-42.8c10.3-30,16.3-60.8,15.3-92.8c-0.9-28-7.8-53.7-27.3-74.9
		c-0.5-0.5-0.7-1.2-1.2-2.3c14-18.9,29.2-36,55-37.5c25.9-1.6,46.7,20,43.1,44.3c-1.1,7.3-4.4,12.5-12,14.5
		c-8.4,2.1-16.7,4.4-25,6.9c-4.4,1.3-8.7,2.7-12.9,4.6c-15.5,7.1-16.1,8.5-13.9,25c4.8,35.2-1.9,69.1-12.8,102.2
		c-5.4,16.3-13.2,31.9-20,47.7c-0.9,2.1-2.5,3.8-3.8,5.7C598.5,691.7,598.3,691.5,598,691.4z"/>
	<path class="st0" d="M267.9,541.8c-0.3-43.2,21-75,53.6-100.6c7.9-6.2,17.9-6.3,27-3.7c8.6,2.5,17,6.4,24.7,11.1
		c5.9,3.5,5.8,8.3,0.9,11.7c-25.6,17.4-43.6,41.9-62.7,65.5c-7.7,9.6-15.3,19.2-23.3,28.6c-3.8,4.5-8.3,10.4-14.8,7.9
		c-6.3-2.4-5.2-9.6-5.4-15.3C267.9,545.1,267.9,543.5,267.9,541.8z"/>
</g>
</svg>
